<svg id="Calque_1" xmlns="http://www.w3.org/2000/svg" viewBox="0 0 283 68"><style>.st1{fill:#919396}</style><path d="M46.21 26.85v-.17c0-13.54 10.9-24.53 25.58-24.53 14.59 0 25.41 10.81 25.41 24.35v.18c0 13.54-10.9 24.53-25.58 24.53-14.59-.01-25.41-10.82-25.41-24.36zm39.97.03v-.21c0-8.17-5.89-15.3-14.57-15.3-8.99 0-14.37 6.93-14.37 15.09v.21c0 8.17 5.89 15.3 14.57 15.3 8.99 0 14.37-6.93 14.37-15.09z" fill="#b7cd1e"/><path class="st1" d="M143.6 49.09V2.14h9.5v46.95h-9.5zM194.12 49.09h10.31L184.51 2.06h-9.23l-19.92 47.02h10.04l4.29-10.57h20.13l4.3 10.58zm-7.8-19.29H173.2l6.56-16.08 6.56 16.08zM30.42 48.03l13.5-30.09 1.14-2.44c.02-.05 1.1-2.64 2.9-5.09C50.75 6.6 54.91 2.68 63.39.48l.84-.18-2.71-.25c-.67-.03-1.34-.05-2-.05-9.54 0-14.38 2.63-17.82 5.75-.67.61-1.27 1.22-1.78 1.85-1.89 2.32-3.23 5.22-3.24 5.24L25.82 37.45 10.53 2.15 0 2.14l20.85 45.77.56 1.19h8.51l.5-1.07zM97.31 40.78l12.73-15.62L91.83 2.14h11.66l12.49 16.23L128.5 2.14h11.36l-18.09 22.89 18.93 24.06h-11.66l-13.29-17.27-11.54 14.35c.76-.97-1.76 2.48-5.27 4.9-3.24 2.23-7.28 4.28-14.85 4.28-2.36 0-4.81-.26-7.3-.76l-3.67-.76 1.84-.16c8.21-.57 12.48-3.5 16.14-6.44 0-.01 3.41-2.86 6.21-6.45z"/><g><path class="st1" d="M113.2 58.24c-.34-1.72-1.54-2.73-3.39-2.73-3.26 0-4.26 2.57-4.26 5.35 0 2.52 1.14 5 4 5 2.17 0 3.47-1.27 3.76-3.34h2.3c-.5 3.34-2.59 5.32-6.04 5.32-4.18 0-6.41-2.91-6.41-6.99 0-4.1 2.12-7.33 6.46-7.33 3.1 0 5.59 1.46 5.9 4.71h-2.32zM124.03 53.53c4.34 0 6.65 3.15 6.65 7.18 0 4-2.3 7.15-6.65 7.15-4.34 0-6.65-3.15-6.65-7.15 0-4.03 2.3-7.18 6.65-7.18zm0 12.34c2.36 0 4.26-1.85 4.26-5.16 0-3.34-1.91-5.19-4.26-5.19-2.36 0-4.26 1.85-4.26 5.19-.01 3.3 1.9 5.16 4.26 5.16zM133.32 53.85h2.12v2.01h.05c1.01-1.54 2.54-2.33 4.42-2.33 1.67 0 3.2.66 3.76 2.33.93-1.46 2.54-2.33 4.29-2.33 2.73 0 4.55 1.14 4.55 3.97v10.04h-2.25v-8.98c0-1.7-.45-3.05-2.65-3.05-2.17 0-3.57 1.38-3.57 3.49v8.53h-2.25v-8.98c0-1.77-.56-3.05-2.57-3.05-2.67 0-3.65 2.46-3.65 3.49v8.53h-2.25V53.85zM155.91 53.85h2.12v2.01h.05c1.01-1.54 2.54-2.33 4.42-2.33 1.67 0 3.2.66 3.76 2.33.93-1.46 2.54-2.33 4.29-2.33 2.73 0 4.55 1.14 4.55 3.97v10.04h-2.25v-8.98c0-1.7-.45-3.05-2.65-3.05-2.17 0-3.57 1.38-3.57 3.49v8.53h-2.25v-8.98c0-1.77-.56-3.05-2.57-3.05-2.67 0-3.65 2.46-3.65 3.49v8.53h-2.25V53.85zM189.82 67.53h-2.12v-2.17h-.05c-.95 1.7-2.49 2.49-4.45 2.49-3.6 0-4.71-2.07-4.71-5.01v-9h2.25v9.27c0 1.67 1.06 2.75 2.78 2.75 2.73 0 4.05-1.83 4.05-4.29v-7.73h2.25v13.69zM193.21 53.85h2.12v2.17h.05c.95-1.69 2.49-2.49 4.45-2.49 3.6 0 4.71 2.06 4.71 5.01v9h-2.25v-9.27c0-1.67-1.06-2.75-2.78-2.75-2.73 0-4.05 1.83-4.05 4.29v7.73h-2.25V53.85zM210.32 51.38h-2.25v-2.75h2.25v2.75zm-2.25 2.47h2.25v13.69h-2.25V53.85zM223.11 58.24c-.34-1.72-1.54-2.73-3.39-2.73-3.26 0-4.26 2.57-4.26 5.35 0 2.52 1.14 5 4 5 2.17 0 3.47-1.27 3.76-3.34h2.3c-.5 3.34-2.6 5.32-6.04 5.32-4.18 0-6.41-2.91-6.41-6.99 0-4.1 2.12-7.33 6.46-7.33 3.1 0 5.59 1.46 5.9 4.71h-2.32zM240.16 67.48c-.4.24-.9.37-1.62.37-1.17 0-1.91-.64-1.91-2.12-1.24 1.46-2.91 2.12-4.82 2.12-2.49 0-4.53-1.11-4.53-3.84 0-3.1 2.3-3.76 4.63-4.21 2.49-.48 4.61-.32 4.61-2.01 0-1.96-1.61-2.28-3.05-2.28-1.91 0-3.31.58-3.42 2.6h-2.25c.13-3.39 2.75-4.58 5.8-4.58 2.46 0 5.14.56 5.14 3.76v7.04c0 1.06 0 1.53.72 1.53.19 0 .4-.03.69-.13v1.75zm-3.66-7.02c-.87.64-2.57.66-4.08.93-1.48.26-2.75.79-2.75 2.46 0 1.48 1.27 2.01 2.65 2.01 2.97 0 4.18-1.85 4.18-3.1v-2.3zM245.38 53.85h2.73v1.99h-2.73v8.5c0 1.03.29 1.22 1.7 1.22h1.03v1.99h-1.72c-2.33 0-3.26-.48-3.26-2.99v-8.71h-2.33v-1.99h2.33v-4.1h2.25v4.09zM252.97 51.38h-2.25v-2.75h2.25v2.75zm-2.25 2.47h2.25v13.69h-2.25V53.85zM262.37 53.53c4.34 0 6.65 3.15 6.65 7.18 0 4-2.3 7.15-6.65 7.15-4.34 0-6.65-3.15-6.65-7.15.01-4.03 2.31-7.18 6.65-7.18zm0 12.34c2.36 0 4.26-1.85 4.26-5.16 0-3.34-1.91-5.19-4.26-5.19-2.36 0-4.26 1.85-4.26 5.19 0 3.3 1.91 5.16 4.26 5.16zM271.67 53.85h2.12v2.17h.05c.95-1.69 2.49-2.49 4.45-2.49 3.6 0 4.71 2.06 4.71 5.01v9h-2.25v-9.27c0-1.67-1.06-2.75-2.78-2.75-2.73 0-4.05 1.83-4.05 4.29v7.73h-2.25V53.85z"/></g></svg>